<svg width="41" height="41" viewBox="0 0 41 41" fill="none" xmlns="http://www.w3.org/2000/svg">
<g clip-path="url(#clip0_74_28)">
<path d="M40.9999 19.2188C40.9999 28.4197 31.823 35.875 20.4999 35.875C17.529 35.875 14.7103 35.3625 12.1638 34.4416C11.2109 35.1383 9.65736 36.0912 7.81556 36.892C5.89368 37.7248 3.57943 38.4375 1.28118 38.4375C0.760676 38.4375 0.296222 38.1252 0.0960271 37.6447C-0.104168 37.1643 0.00794111 36.6197 0.368293 36.2514L0.392316 36.2273C0.41634 36.2033 0.448371 36.1713 0.496418 36.1152C0.584504 36.0191 0.720637 35.867 0.888801 35.6588C1.21712 35.2584 1.65755 34.6658 2.10599 33.9291C2.90677 32.5998 3.66751 30.8541 3.81966 28.8922C1.41732 26.1695 -6.66814e-05 22.8303 -6.66814e-05 19.2188C-6.66814e-05 10.0178 9.17689 2.5625 20.4999 2.5625C31.823 2.5625 40.9999 10.0178 40.9999 19.2188Z" fill="#FF0000"/>
<rect x="8" y="14" width="25" height="4" rx="2" fill="white"/>
<rect x="8.48267" y="22.2069" width="17.6724" height="4" rx="2" fill="white"/>
</g>
<defs>
<clipPath id="clip0_74_28">
<rect width="41" height="41" fill="white"/>
</clipPath>
</defs>
</svg>
